<svg width="207" height="203" viewBox="0 0 207 203" fill="none" xmlns="http://www.w3.org/2000/svg">
<path d="M113.777 5.10742C135.6 16.5447 150.318 20.7724 161.73 24.5L186.45 65.0059C195.755 80.2528 198.032 98.7723 192.698 115.819L182.425 148.651L165.25 173.041L126.189 190.07C100.246 194.59 81.6124 193.167 66.8066 188.462C52.0865 183.784 40.7185 175.732 29.3721 166.14L5.1084 131.331L9.48828 67.7402C20.6827 31.3206 52.9087 18.2595 67.6943 9.11328L113.777 5.10742Z" fill="#F4DAB9" stroke="#F4DAB9" stroke-width="10"/>
<path d="M186.847 83.3264L182.54 121.826L163.54 163.826L138.001 177.293L134.34 178.68C100.021 191.686 61.3217 184.62 33.8123 160.326L12.5402 117.326L17.5402 60.8262L33.8122 41.2968L72.9565 17.8079C111.166 9.3649 141.032 20.6566 158.54 33.826L186.847 83.3264Z" fill="#F4DAB9"/>
<g opacity="0.5">
<path d="M113.777 5.10742C135.6 16.5447 150.318 20.7724 161.73 24.5L186.45 65.0059C195.755 80.2528 198.032 98.7723 192.698 115.819L182.425 148.651L165.25 173.041L126.189 190.07C100.246 194.59 81.6124 193.167 66.8066 188.462C52.0865 183.784 40.7185 175.732 29.3721 166.14L5.1084 131.331L9.48828 67.7402C20.6827 31.3206 52.9087 18.2595 67.6943 9.11328L113.777 5.10742Z" fill="#234560" stroke="#234560" stroke-width="10"/>
<path d="M186.847 83.3264L182.54 121.826L163.54 163.826L138.001 177.293L134.34 178.68C100.021 191.686 61.3217 184.62 33.8123 160.326L12.5402 117.326L17.5402 60.8262L33.8122 41.2968L72.9565 17.8079C111.166 9.3649 141.032 20.6566 158.54 33.826L186.847 83.3264Z" fill="#E6E2D6"/>
</g>
</svg>
