<svg width="203" height="201" viewBox="0 0 203 201" fill="none" xmlns="http://www.w3.org/2000/svg">
<path d="M71.0488 10.0996C94.3418 2.70858 119.012 4.60021 137.713 7.98047L185.661 50.1992L192.905 94.0811C195.445 109.463 192.802 125.252 185.392 138.969C183.113 143.186 180.41 147.159 177.323 150.826L152.472 180.355C134.857 185.735 123.656 188.369 114.792 190.16C98.557 193.44 81.5106 191.525 66.4697 184.646L29.6104 167.785L5.18262 100.535L11.4072 70.3096C25.0523 34.5614 47.5633 17.5519 71.0488 10.0996Z" fill="#234560" stroke="#234560" stroke-width="10"/>
<path d="M64.9478 20.0234L124.948 13.0234L147.948 23.5234L181.266 64.0234L184.948 116.523L164.948 154.523C153.348 168.923 126.448 180.023 110.266 182.023L76.9478 180.023L41.4478 163.023L19.4478 123.023C12.4478 84.5234 21.4477 59.5234 35.2663 42.5234L64.9478 20.0234Z" fill="#E6E2D6"/>
</svg>
