<svg width="141" height="132" viewBox="0 0 141 132" fill="none" xmlns="http://www.w3.org/2000/svg">
<path d="M51.9326 4.09863C77.6623 7.28681 84.2148 6.73692 96.0527 7.35645L131.685 37.6689L136.884 60.6064L125.389 105.062C109.533 122.194 91.5009 127.932 74.623 127.999C57.6742 128.066 41.7693 122.397 30.4834 116.426L4.20898 86.8574L11.1973 35.1143L37.0518 10.2725L51.9326 4.09863Z" fill="#F4DAB9" stroke="#F4DAB9" stroke-width="8"/>
<path d="M60.5 118.614L70.5 67.1137L101 109.614L76 120.614L60.5 118.614Z" fill="#F4DAB9"/>
<path d="M108.5 101.614L74.5 63.6138L125.5 67.1137L118.5 101.614H108.5Z" fill="#F4DAB9"/>
<path d="M122.5 60.6137L76 59.1138L103.5 25.1137L122.5 43.1137V60.6137Z" fill="#F4DAB9"/>
<path d="M86 20.1137L70.5 57.1138L47.5 18.6137C56.3 11.4137 76.8333 16.6137 86 20.1137Z" fill="#F4DAB9"/>
<path d="M41.5 25.1137L63.5 59.1138L21 62.6138L24.5 38.1138L41.5 25.1137Z" fill="#F4DAB9"/>
<path d="M21.5 70.6138L66 63.6138L51.5 113.114L16 82.1138L21.5 70.6138Z" fill="#F4DAB9"/>
<g opacity="0.4">
<path d="M51.9326 4.09863C77.6623 7.28681 84.2148 6.73692 96.0527 7.35645L131.685 37.6689L136.884 60.6064L125.389 105.062C109.533 122.194 91.5009 127.932 74.623 127.999C57.6742 128.066 41.7693 122.397 30.4834 116.426L4.20898 86.8574L11.1973 35.1143L37.0518 10.2725L51.9326 4.09863Z" fill="#E6E2D6" stroke="#E3A715" stroke-width="8"/>
<path d="M60.5 118.614L70.5 67.1137L101 109.614L76 120.614L60.5 118.614Z" fill="#E3A715"/>
<path d="M108.5 101.614L74.5 63.6138L125.5 67.1137L118.5 101.614H108.5Z" fill="#E3A715"/>
<path d="M122.5 60.6137L76 59.1138L103.5 25.1137L122.5 43.1137V60.6137Z" fill="#E3A715"/>
<path d="M86 20.1137L70.5 57.1138L47.5 18.6137C56.3 11.4137 76.8333 16.6137 86 20.1137Z" fill="#E3A715"/>
<path d="M41.5 25.1137L63.5 59.1138L21 62.6138L24.5 38.1138L41.5 25.1137Z" fill="#E3A715"/>
<path d="M21.5 70.6138L66 63.6138L51.5 113.114L16 82.1138L21.5 70.6138Z" fill="#E3A715"/>
</g>
</svg>
