<svg width="188" height="175" viewBox="0 0 188 175" fill="none" xmlns="http://www.w3.org/2000/svg">
<path d="M38.0576 4.06152C90.8638 -4.98048 124.171 11.1054 145.499 33.624C166.851 56.1686 176.333 85.308 181.09 102.786L179.102 146.55L179.078 147.072L179.385 147.496L185.586 156.082L185.14 171.706L173.525 172.432C166.572 172.866 159.628 171.454 153.396 168.339L147.838 165.56L147.36 165.637C118.349 170.341 82.6193 164.756 67.9082 161.267L34.2246 123.125L34.1943 123.09L34.1611 123.058L32.5166 121.397C28.2441 117.051 21.2297 109.676 17.7891 105.203C17.4952 104.821 17.0799 103.846 16.6309 102.109C16.2008 100.446 15.7877 98.2882 15.3955 95.7354C14.6117 90.634 13.9279 84.0711 13.3457 76.9824C12.1817 62.8113 11.4324 46.6377 11.0996 36.0703L11.0752 35.2822L10.4111 34.8564L9.9375 34.541C5.11986 31.2292 2.8191 26.2423 1.94043 21.1621C1.10396 16.3257 1.58427 11.5231 2.34082 8.32617C7.22813 7.00103 11.846 6.84473 15.667 7.2832C19.7383 7.75044 22.7834 8.87612 24.2686 9.86621L24.9795 10.3398L25.749 9.9707L38.0576 4.06152Z" fill="#E6E2D6" stroke="#E3A715" stroke-width="3"/>
<path d="M46.7513 96V73.28H49.6313V93.44H62.3033V96H46.7513ZM72.1328 96.32C70.8741 96.32 69.7221 96.096 68.6768 95.648C67.6528 95.1787 66.7568 94.5493 65.9888 93.76C65.2421 92.9493 64.6554 92.0213 64.2288 90.976C63.8234 89.9307 63.6208 88.8213 63.6208 87.648C63.6208 86.0693 63.9834 84.6293 64.7088 83.328C65.4341 82.0267 66.4368 80.9813 67.7168 80.192C69.0181 79.4027 70.5008 79.008 72.1648 79.008C73.8501 79.008 75.3114 79.4133 76.5488 80.224C77.8074 81.0133 78.7781 82.0587 79.4608 83.36C80.1648 84.64 80.5168 86.0267 80.5168 87.52C80.5168 87.7333 80.5061 87.9467 80.4848 88.16C80.4848 88.352 80.4741 88.5013 80.4528 88.608H66.5968C66.6821 89.696 66.9808 90.6667 67.4928 91.52C68.0261 92.352 68.7088 93.0133 69.5408 93.504C70.3728 93.9733 71.2688 94.208 72.2288 94.208C73.2528 94.208 74.2128 93.952 75.1088 93.44C76.0261 92.928 76.6554 92.256 76.9968 91.424L79.4288 92.096C79.0661 92.9067 78.5221 93.632 77.7968 94.272C77.0928 94.912 76.2501 95.4133 75.2688 95.776C74.3088 96.1387 73.2634 96.32 72.1328 96.32ZM66.5008 86.656H77.8928C77.8074 85.568 77.4981 84.608 76.9648 83.776C76.4314 82.944 75.7488 82.2933 74.9168 81.824C74.0848 81.3547 73.1674 81.12 72.1648 81.12C71.1834 81.12 70.2768 81.3547 69.4448 81.824C68.6128 82.2933 67.9301 82.944 67.3968 83.776C66.8848 84.608 66.5861 85.568 66.5008 86.656ZM108.831 96H106.015V86.656C106.015 84.9067 105.727 83.616 105.151 82.784C104.596 81.952 103.764 81.536 102.655 81.536C101.524 81.536 100.5 81.952 99.583 82.784C98.6657 83.5947 98.015 84.6507 97.631 85.952V96H94.815V86.656C94.815 84.8853 94.5377 83.5947 93.983 82.784C93.4283 81.952 92.5963 81.536 91.487 81.536C90.3777 81.536 89.3537 81.9413 88.415 82.752C87.4977 83.5413 86.847 84.5973 86.463 85.92V96H83.647V79.296H86.207V82.88C86.8897 81.6427 87.775 80.6933 88.863 80.032C89.951 79.3493 91.1777 79.008 92.543 79.008C93.9297 79.008 95.039 79.392 95.871 80.16C96.703 80.9067 97.215 81.8773 97.407 83.072C98.1537 81.7493 99.0603 80.7467 100.127 80.064C101.194 79.36 102.41 79.008 103.775 79.008C104.735 79.008 105.535 79.1893 106.175 79.552C106.836 79.8933 107.359 80.384 107.743 81.024C108.127 81.6427 108.404 82.3787 108.575 83.232C108.746 84.0853 108.831 85.0133 108.831 86.016V96ZM120.506 96.32C119.247 96.32 118.106 96.096 117.082 95.648C116.058 95.1787 115.172 94.5493 114.426 93.76C113.679 92.9493 113.103 92.0213 112.698 90.976C112.292 89.9307 112.09 88.832 112.09 87.68C112.09 86.5067 112.292 85.3973 112.698 84.352C113.103 83.3067 113.679 82.3893 114.426 81.6C115.172 80.7893 116.058 80.16 117.082 79.712C118.127 79.2427 119.268 79.008 120.506 79.008C121.764 79.008 122.906 79.2427 123.93 79.712C124.954 80.16 125.839 80.7893 126.586 81.6C127.354 82.3893 127.94 83.3067 128.346 84.352C128.751 85.3973 128.954 86.5067 128.954 87.68C128.954 88.832 128.751 89.9307 128.346 90.976C127.94 92.0213 127.364 92.9493 126.618 93.76C125.871 94.5493 124.975 95.1787 123.93 95.648C122.906 96.096 121.764 96.32 120.506 96.32ZM114.97 87.712C114.97 88.864 115.215 89.9093 115.706 90.848C116.218 91.7867 116.89 92.5333 117.722 93.088C118.554 93.6213 119.482 93.888 120.506 93.888C121.53 93.888 122.458 93.6107 123.29 93.056C124.143 92.5013 124.815 91.7547 125.306 90.816C125.818 89.856 126.074 88.8 126.074 87.648C126.074 86.496 125.818 85.4507 125.306 84.512C124.815 83.5733 124.143 82.8267 123.29 82.272C122.458 81.7173 121.53 81.44 120.506 81.44C119.482 81.44 118.554 81.728 117.722 82.304C116.89 82.8587 116.218 83.6053 115.706 84.544C115.215 85.4827 114.97 86.5387 114.97 87.712ZM146.862 96H144.046V86.656C144.046 84.8853 143.768 83.5947 143.214 82.784C142.68 81.952 141.859 81.536 140.75 81.536C139.982 81.536 139.214 81.728 138.446 82.112C137.699 82.496 137.027 83.0187 136.43 83.68C135.854 84.32 135.438 85.0667 135.182 85.92V96H132.366V79.296H134.926V82.88C135.374 82.0907 135.95 81.408 136.654 80.832C137.358 80.256 138.158 79.808 139.054 79.488C139.95 79.168 140.888 79.008 141.87 79.008C142.83 79.008 143.63 79.1893 144.27 79.552C144.931 79.8933 145.443 80.384 145.806 81.024C146.19 81.6427 146.456 82.3787 146.606 83.232C146.776 84.0853 146.862 85.0133 146.862 86.016V96Z" fill="#E3A715"/>
</svg>
