<svg width="132" height="133" viewBox="0 0 132 133" fill="none" xmlns="http://www.w3.org/2000/svg">
<path d="M82.2812 6.84766C93.3938 16.8607 108.708 25.4449 116.575 29.2939L127.851 74.3975L123.401 89.0801L97.7266 120.46L68.8994 128.021C53.7865 128.647 40.0353 122.981 29.084 115.486C18.4524 108.21 10.8087 99.4471 7.41211 93.7705L4.05664 53.0312L11.0127 33.5547C24.4034 18.2503 45.0352 7.7379 54.5332 4.07324L82.2812 6.84766Z" fill="#E6E2D6" stroke="#E3A715" stroke-width="8"/>
<path d="M52.4998 113L65.4998 70L89.4998 111.5C71.4998 117.9 57.3331 115.167 52.4998 113Z" fill="#E3A715"/>
<path d="M96.4998 106.5L68.9998 68L113.5 65.9999V84.4999L96.4998 106.5Z" fill="#E3A715"/>
<path d="M111.5 60.5L68.9998 63L93.4998 23.9999L109 34.9999L111.5 60.5Z" fill="#E3A715"/>
<path d="M81.4998 20.9999L64.4998 61L40.4998 23.9999C57.2998 15.1999 74.8331 18.3332 81.4998 20.9999Z" fill="#E3A715"/>
<path d="M33.4998 30.5L60.9998 63L17.5 61C17.5 52.5 18.6665 43.3333 20.4999 38.5L33.4998 30.5Z" fill="#E3A715"/>
<path d="M15.9998 70L60.9998 68C52.4998 78.5 44.8331 98.9999 41.9998 111.5L20.4998 93L15.9998 70Z" fill="#E3A715"/>
</svg>
