<svg width="192" height="166" viewBox="0 0 192 166" fill="none" xmlns="http://www.w3.org/2000/svg">
<path d="M182.5 102.5H158L137 69L116.5 48L112 19.9999L103.5 11.5C92.3 11.1 78.1667 4.33323 72.5 0.999852C50.9 -1.80015 29.1667 12.4999 21 19.9999C16.2 31.5999 7.99998 43.8332 4.49998 48.4999C6.09998 53.2999 5.16664 80.4999 4.49998 93.4999C-3.50002 103.9 1.16664 115.5 4.49998 120L2.49998 135.5L20 154L39.5 166H66C76.8 155.6 91.5 147.667 97.5 145L116.5 129.5L124.5 115C169.5 117 188.667 116 191.5 114.5L182.5 102.5Z" fill="#E6E2D6"/>
</svg>
