<svg width="478" height="294" viewBox="0 0 478 294" fill="none" xmlns="http://www.w3.org/2000/svg">
<path d="M0.5 163.5L20 100.5L84 66H150.517C154.828 66 159.129 65.571 163.356 64.7194L224 52.5L306.48 27.8027C310.484 26.6037 314.594 25.7937 318.754 25.3841L378.5 19.5H400L447.5 92.5L388.5 154L280.5 225.5L190 276L116 294L42.5 270L9.5 229L0.5 163.5Z" fill="#234560"/>
<path d="M372 6L344.5 19H376L388 28L395.5 43L357.5 70.5L365 76L399.5 66H419.5L421 86L385.5 112L427 94L441 95L401.5 138.5H417.5L452.5 93.5V53.5L478 19L457 0L424 19L372 6Z" fill="#7A8250"/>
</svg>
