<svg width="245" height="258" viewBox="0 0 245 258" fill="none" xmlns="http://www.w3.org/2000/svg">
<path d="M183.5 230.5L167 243.5L131.5 256L94 257.5L59.5 251L31 233C19 211 7 197.5 2.5 193.5L0 155.5C3.2 139.1 4 117.667 4 109L15 82.5L30 74.5L39.5 65.5L40.5 50.5L58.5 33.5L84 8L117.5 0.5L151 4.5L219.5 44.5L230 59.5L237.5 76.5L242.5 116C238.5 124 233.833 145 232 154.5C234.8 158.5 241.5 172.5 244.5 179L224 206.5L220.5 214L198 211L183.5 230.5Z" fill="#963234"/>
<path d="M126 233.5L117.5 248.5H95L79 243L64 242.5L42.5 228L26.5 210C24.1 201.2 15.5 183.667 11.5 176L8.5 159L16 150L23.5 166L37.5 167L47.5 159C47.1 149.4 29 136.333 20 131L20.5 113.5L25.5 94L40 79C49.6 75.8 56 70.3333 57 68L65.5 77.5L87 85.5L98 77.5L92.5 46L83.5 37.5L86 27.5L100 19L115 22.5C128.6 16.1 136.667 14.1667 139 14L158.5 33C159.5 45.5 162 49 162 49.5C162 49.9 166.333 55.6667 168.5 58.5L183.5 66L197 87L206 91.5L198 66.5V51.0002C204.8 50.2002 210.833 53.6669 213 55.5002L230 92.5002C224.4 104.5 227.667 118.5 230 124L214.5 155.5L196.5 144C188.5 140.4 178.5 140.5 174.5 141L172 155L162 160.5C154 158.9 147.333 158.5 145 158.5C153.4 168.1 160.833 185.834 163.5 193.5L162 210H158L126 223.5V233.5Z" fill="#E6E2D6"/>
<path d="M191.5 45L188.5 60L170.5 55L167 46.5L184 40.5L191.5 45Z" fill="#E97661"/>
<path d="M196 100L203.5 94.5L215.5 106L214.5 113L199 115.5L196 100Z" fill="#E97661"/>
<path d="M192 87.5L193 104L182.5 114.5L171.5 107.5L175.5 95.5L188 84L192 87.5Z" fill="#E97661"/>
<path d="M161 87L157.5 74L171.5 67.5C178.3 69.1 185.667 76.1667 188.5 79.5L173 90.5L161 87Z" fill="#E97661"/>
<path d="M171.5 95L167.5 91.5L150.5 93L151.5 103.5L166 110.5L171.5 95Z" fill="#E97661"/>
<path d="M168.5 121.5L181.5 117L185.5 130.5L171.5 139L163.5 130.5L168.5 121.5Z" fill="#E97661"/>
<path d="M144 132.5L153.5 129.5L165 140.5L164.5 154.5C158.9 149.3 148.833 148 144.5 148L144 132.5Z" fill="#E97661"/>
<path d="M126.5 110.5C129.7 108.9 134.167 102.167 136 99C141.6 100.6 148.667 106 151.5 108.5L152 120L132 120.5L126.5 110.5Z" fill="#E97661"/>
<path d="M114.5 81L126 63.5L141.5 66L139 82.5L127 88.5L114.5 81Z" fill="#E97661"/>
<path d="M127 57L115 61.5C113.4 56.3 109.333 49.6667 107.5 47L113 36L119.5 29.5C123.5 36.7 129.5 41.8333 132 43.5L127 57Z" fill="#E97661"/>
<path d="M130 26L145 26.5L154 35.5C152 38.3 150.167 44.6667 149.5 47.5L137 42.5L125.5 30L130 26Z" fill="#E97661"/>
<path d="M55 77L61.5 78.5L64.5 93.5L48.5 95.5L42.5 89L55 77Z" fill="#E97661"/>
<path d="M33.5 98.5L48.5 109V120.5H28L23.5 111L33.5 98.5Z" fill="#E97661"/>
<path d="M48.5 131.5C52.1 127.9 58.6667 124.667 61.5 123.5L70 131L64 140C62 140 54.8333 143.333 51.5 145L48.5 131.5Z" fill="#E97661"/>
<path d="M79.5 130.5L87.5 123.5L96.5 128.5C98.1667 132.5 101.5 140.6 101.5 141C101.5 141.4 92.8333 144.5 88.5 146L79.5 130.5Z" fill="#E97661"/>
<path d="M69.5 150.5H79.5L80.5 170.5L70 175L59 165.5C62.6 158.3 67.5 152.5 69.5 150.5Z" fill="#E97661"/>
<path d="M103.5 150.5C109.9 143.3 110.833 134.5 110.5 131L126 130.5L128.5 140.5L116.5 151.5L103.5 150.5Z" fill="#E97661"/>
<path d="M88.5 159L103.5 156L110.5 163L97.5 175L91 174.5L88.5 159Z" fill="#E97661"/>
<path d="M94 179.5L105 174L119 181L106 198.5C102.8 196.1 95.6667 195.5 92.5 195.5L94 179.5Z" fill="#E97661"/>
<path d="M83 185.5C75.4 186.3 66.1667 181.167 62.5 178.5V191L75 203.5C77.8 201.1 82.1667 200.5 84 200.5L83 185.5Z" fill="#E97661"/>
<path d="M60 195.5C58 193.1 55.5 184.167 54.5 180L40 182C40 188.4 37.3333 200 36 205H52.5L60 195.5Z" fill="#E97661"/>
<path d="M52 211L62 206L74 215C72.4 219.8 66.3333 228 63.5 231.5L52.5 231L52 211Z" fill="#E97661"/>
<path d="M79 225.5C81.8 223.1 83.1667 217.5 83.5 215L97 218L109 230L104 235.5L89 236.5L79 225.5Z" fill="#E97661"/>
<path d="M102.5 216.5C104.5 214.1 106 208.167 106.5 205.5L118.5 200.5L124.5 214.5L123 223.5L114 232L102.5 216.5Z" fill="#E97661"/>
<path d="M132 206L128.5 193.5L141.5 186.5C149.1 188.1 156 194.5 158.5 197.5L143.5 210L132 206Z" fill="#E97661"/>
</svg>
